<svg preserveAspectRatio="none" width="100%" height="100%" overflow="visible" style="display: block;" viewBox="0 0 44.2481 28.0484" fill="none" xmlns="http://www.w3.org/2000/svg">
<g id="Menu Bar Menu Item">
<g id="apple" filter="url(#filter0_d_0_159)">
<path d="M24.6621 7.07124C25.2029 6.42582 25.5779 5.54492 25.5779 4.65529C25.5779 4.53318 25.5692 4.41108 25.543 4.31514C24.6796 4.35002 23.6329 4.89078 23.005 5.62341C22.5165 6.18161 22.063 7.07124 22.063 7.96087C22.063 8.10042 22.0805 8.23125 22.0979 8.27485C22.1502 8.28358 22.2374 8.30102 22.3247 8.30102C23.1096 8.30102 24.0865 7.77771 24.6621 7.07124ZM25.2814 8.48418C23.9731 8.48418 22.9177 9.27787 22.2374 9.27787C21.5135 9.27787 20.5716 8.53651 19.4377 8.53651C17.2834 8.53651 15.103 10.3158 15.103 13.665C15.103 15.7582 15.9054 17.9648 16.9084 19.3865C17.7631 20.5901 18.5132 21.5757 19.586 21.5757C20.6588 21.5757 21.1298 20.8692 22.4468 20.8692C23.7987 20.8692 24.0952 21.5582 25.2814 21.5582C26.4501 21.5582 27.2263 20.4854 27.959 19.4301C28.7876 18.2178 29.1277 17.0403 29.1451 16.9793C29.0754 16.9618 26.8339 16.046 26.8339 13.4905C26.8339 11.2752 28.5957 10.2809 28.6916 10.2024C27.5403 8.53651 25.7698 8.48418 25.2814 8.48418Z" fill="var(--fill-0, white)" fill-opacity="0.9"/>
</g>
</g>
<defs>
<filter id="filter0_d_0_159" x="10.7878" y="2.15757" width="22.6724" height="25.8908" filterUnits="userSpaceOnUse" color-interpolation-filters="sRGB">
<feFlood flood-opacity="0" result="BackgroundImageFix"/>
<feColorMatrix in="SourceAlpha" type="matrix" values="0 0 0 0 0 0 0 0 0 0 0 0 0 0 0 0 0 0 127 0" result="hardAlpha"/>
<feOffset dy="2.15757"/>
<feGaussianBlur stdDeviation="2.15757"/>
<feColorMatrix type="matrix" values="0 0 0 0 0 0 0 0 0 0 0 0 0 0 0 0 0 0 0.15 0"/>
<feBlend mode="normal" in2="BackgroundImageFix" result="effect1_dropShadow_0_159"/>
<feBlend mode="normal" in="SourceGraphic" in2="effect1_dropShadow_0_159" result="shape"/>
</filter>
</defs>
</svg>
