<svg preserveAspectRatio="none" width="100%" height="100%" overflow="visible" style="display: block;" viewBox="0 0 33.7878 20.4716" fill="none" xmlns="http://www.w3.org/2000/svg">
<g id="battery.100" filter="url(#filter0_d_0_174)">
<path d="M8.80726 13.9989H22.2668C22.986 13.9989 23.6433 13.9399 24.2389 13.8219C24.8345 13.7039 25.3458 13.4314 25.7728 13.0044C26.2055 12.5718 26.478 12.0605 26.5903 11.4705C26.7027 10.8805 26.7589 10.2232 26.7589 9.49835V6.64969C26.7589 5.9305 26.7027 5.27593 26.5903 4.68597C26.478 4.09601 26.2055 3.58471 25.7728 3.15207C25.3402 2.72505 24.8261 2.45255 24.2305 2.33456C23.6405 2.21656 22.986 2.15757 22.2668 2.15757H8.7904C8.08245 2.15757 7.43068 2.21656 6.83511 2.33456C6.24515 2.45255 5.73385 2.72786 5.30121 3.1605C4.87419 3.58752 4.60169 4.09601 4.48369 4.68597C4.37132 5.27593 4.31514 5.92488 4.31514 6.63283V9.49835C4.31514 10.2232 4.37132 10.8805 4.48369 11.4705C4.59607 12.0605 4.86857 12.5718 5.30121 13.0044C5.73385 13.4314 6.24515 13.7039 6.83511 13.8219C7.43068 13.9399 8.08807 13.9989 8.80726 13.9989ZM8.5797 12.642C8.14706 12.642 7.72005 12.5999 7.29865 12.5156C6.88287 12.4313 6.54575 12.2627 6.28729 12.0099C6.03445 11.7571 5.8687 11.4227 5.79003 11.007C5.71137 10.5912 5.67204 10.167 5.67204 9.73434V6.44742C5.67204 6.00354 5.71137 5.57372 5.79003 5.15793C5.8687 4.73653 6.03445 4.39661 6.28729 4.13815C6.54013 3.88531 6.87725 3.71956 7.29865 3.6409C7.72566 3.55662 8.16111 3.51448 8.60499 3.51448H22.4943C22.927 3.51448 23.3512 3.55662 23.767 3.6409C24.1884 3.71956 24.5283 3.88812 24.7867 4.14658C25.0396 4.39941 25.2053 4.73373 25.284 5.14951C25.3627 5.56529 25.402 5.9895 25.402 6.42213V9.73434C25.402 10.167 25.3627 10.5912 25.284 11.007C25.2053 11.4227 25.0396 11.7571 24.7867 12.0099C24.5283 12.2684 24.1884 12.4397 23.767 12.524C23.3512 12.6027 22.927 12.642 22.4943 12.642H8.5797ZM27.9051 10.2569C28.1298 10.24 28.363 10.1417 28.6046 9.96189C28.8462 9.77648 29.0513 9.52364 29.2199 9.20337C29.3884 8.88311 29.4727 8.50666 29.4727 8.07402C29.4727 7.647 29.3884 7.27336 29.2199 6.9531C29.0513 6.63283 28.8462 6.37999 28.6046 6.19458C28.363 6.00916 28.1298 5.91084 27.9051 5.8996V10.2569ZM8.24258 11.5716H22.8399C23.132 11.5716 23.368 11.5492 23.5478 11.5042C23.7276 11.4593 23.8821 11.375 24.0114 11.2514C24.135 11.1278 24.2193 10.9761 24.2642 10.7963C24.3148 10.6108 24.3401 10.3721 24.3401 10.0799V6.07659C24.3401 5.78442 24.3148 5.54843 24.2642 5.36863C24.2193 5.18322 24.135 5.02871 24.0114 4.90509C23.8821 4.77587 23.7276 4.69159 23.5478 4.65225C23.368 4.60731 23.132 4.58483 22.8399 4.58483H8.24258C7.94479 4.58483 7.706 4.60731 7.5262 4.65225C7.3464 4.69159 7.1947 4.77587 7.07109 4.90509C6.94748 5.02871 6.86039 5.18322 6.80982 5.36863C6.76487 5.54843 6.7424 5.78442 6.7424 6.07659V10.0799C6.7424 10.3721 6.76487 10.6108 6.80982 10.7963C6.86039 10.9761 6.94748 11.1278 7.07109 11.2514C7.20032 11.375 7.35202 11.4593 7.5262 11.5042C7.706 11.5492 7.94479 11.5716 8.24258 11.5716Z" fill="var(--fill-0, white)" fill-opacity="0.9"/>
</g>
<defs>
<filter id="filter0_d_0_174" x="0" y="0" width="33.7878" height="20.4716" filterUnits="userSpaceOnUse" color-interpolation-filters="sRGB">
<feFlood flood-opacity="0" result="BackgroundImageFix"/>
<feColorMatrix in="SourceAlpha" type="matrix" values="0 0 0 0 0 0 0 0 0 0 0 0 0 0 0 0 0 0 127 0" result="hardAlpha"/>
<feOffset dy="2.15757"/>
<feGaussianBlur stdDeviation="2.15757"/>
<feColorMatrix type="matrix" values="0 0 0 0 0 0 0 0 0 0 0 0 0 0 0 0 0 0 0.15 0"/>
<feBlend mode="normal" in2="BackgroundImageFix" result="effect1_dropShadow_0_174"/>
<feBlend mode="normal" in="SourceGraphic" in2="effect1_dropShadow_0_174" result="shape"/>
</filter>
</defs>
</svg>
