<svg preserveAspectRatio="none" width="100%" height="100%" overflow="visible" style="display: block;" viewBox="0 0 21.9634 24.5423" fill="none" xmlns="http://www.w3.org/2000/svg">
<g id="switch" filter="url(#filter0_d_0_176)">
<path d="M7.92232 18.0696H14.041C14.7097 18.0696 15.3165 17.9235 15.8615 17.6314C16.4065 17.3448 16.8391 16.9403 17.1594 16.4177C17.4853 15.9008 17.6482 15.2968 17.6482 14.6057C17.6482 13.9146 17.4853 13.3106 17.1594 12.7937C16.8391 12.2712 16.4065 11.8666 15.8615 11.5801C15.3165 11.2879 14.7097 11.1418 14.041 11.1418H7.92232C7.2537 11.1418 6.64688 11.2879 6.10187 11.5801C5.55686 11.8666 5.12141 12.2712 4.79553 12.7937C4.47527 13.3106 4.31514 13.9146 4.31514 14.6057C4.31514 15.2968 4.47527 15.9008 4.79553 16.4177C5.12141 16.9403 5.55686 17.3448 6.10187 17.6314C6.64688 17.9235 7.2537 18.0696 7.92232 18.0696ZM14.2602 16.797C13.8556 16.7914 13.4876 16.6902 13.1561 16.4936C12.8246 16.2969 12.5605 16.0329 12.3639 15.7014C12.1728 15.3699 12.0773 15.0018 12.0773 14.5973C12.0773 14.1984 12.1728 13.8332 12.3639 13.5017C12.5605 13.1702 12.8246 12.9061 13.1561 12.7094C13.4876 12.5128 13.8556 12.4144 14.2602 12.4144C14.6647 12.4144 15.0327 12.5128 15.3642 12.7094C15.7014 12.9061 15.9682 13.1702 16.1649 13.5017C16.3616 13.8275 16.4571 14.1899 16.4515 14.5889C16.4515 14.9934 16.3503 15.3642 16.148 15.7014C15.9514 16.0385 15.6873 16.3054 15.3558 16.502C15.0299 16.6987 14.6647 16.797 14.2602 16.797ZM8.26787 9.8439H13.7039C14.4231 9.8439 15.0805 9.68377 15.6761 9.36351C16.2773 9.04324 16.7549 8.59375 17.1088 8.01503C17.4684 7.4363 17.6482 6.76487 17.6482 6.00073C17.6482 5.2366 17.4684 4.56517 17.1088 3.98644C16.7549 3.40772 16.2773 2.95823 15.6761 2.63796C15.0805 2.3177 14.4231 2.15757 13.7039 2.15757H8.26787C7.54306 2.15757 6.88006 2.3177 6.27886 2.63796C5.68328 2.95823 5.20569 3.40772 4.8461 3.98644C4.49212 4.56517 4.31514 5.2366 4.31514 6.00073C4.31514 6.76487 4.49212 7.4363 4.8461 8.01503C5.20569 8.59375 5.68328 9.04324 6.27886 9.36351C6.88006 9.68377 7.54306 9.8439 8.26787 9.8439ZM8.26787 8.57127C7.7959 8.57127 7.35483 8.46452 6.94467 8.25101C6.54013 8.03188 6.21143 7.73128 5.95859 7.34921C5.71137 6.96153 5.58776 6.51203 5.58776 6.00073C5.58776 5.48944 5.71137 5.04275 5.95859 4.66068C6.21143 4.273 6.54013 3.9724 6.94467 3.75889C7.35483 3.53976 7.7959 3.4302 8.26787 3.4302H13.7039C14.1703 3.4302 14.6057 3.53976 15.0103 3.75889C15.4204 3.9724 15.7491 4.273 15.9963 4.66068C16.2492 5.04275 16.3756 5.48944 16.3756 6.00073C16.3756 6.51203 16.2492 6.96153 15.9963 7.34921C15.7491 7.73128 15.4204 8.03188 15.0103 8.25101C14.6057 8.46452 14.1703 8.57127 13.7039 8.57127H8.26787ZM8.26787 7.99817C8.6387 8.00379 8.97301 7.9167 9.2708 7.7369C9.57421 7.55149 9.81581 7.30707 9.99561 7.00367C10.181 6.69464 10.2737 6.35471 10.2737 5.98388C10.2793 5.61305 10.1923 5.27874 10.0125 4.98095C9.83266 4.67754 9.58825 4.43875 9.27923 4.26457C8.97582 4.08477 8.6387 3.99487 8.26787 3.99487C7.89703 3.99487 7.55991 4.08477 7.25651 4.26457C6.9531 4.44436 6.7115 4.68597 6.5317 4.98937C6.35752 5.29278 6.27043 5.62709 6.27043 5.99231C6.27043 6.36314 6.35752 6.70026 6.5317 7.00367C6.7115 7.30707 6.9531 7.54868 7.25651 7.72847C7.55991 7.90827 7.89703 7.99817 8.26787 7.99817Z" fill="var(--fill-0, white)" fill-opacity="0.9"/>
</g>
<defs>
<filter id="filter0_d_0_176" x="0" y="0" width="21.9634" height="24.5423" filterUnits="userSpaceOnUse" color-interpolation-filters="sRGB">
<feFlood flood-opacity="0" result="BackgroundImageFix"/>
<feColorMatrix in="SourceAlpha" type="matrix" values="0 0 0 0 0 0 0 0 0 0 0 0 0 0 0 0 0 0 127 0" result="hardAlpha"/>
<feOffset dy="2.15757"/>
<feGaussianBlur stdDeviation="2.15757"/>
<feColorMatrix type="matrix" values="0 0 0 0 0 0 0 0 0 0 0 0 0 0 0 0 0 0 0.15 0"/>
<feBlend mode="normal" in2="BackgroundImageFix" result="effect1_dropShadow_0_176"/>
<feBlend mode="normal" in="SourceGraphic" in2="effect1_dropShadow_0_176" result="shape"/>
</filter>
</defs>
</svg>
