<svg preserveAspectRatio="none" width="100%" height="100%" overflow="visible" style="display: block;" viewBox="0 0 24.5002 24.6519" fill="none" xmlns="http://www.w3.org/2000/svg">
<g id="magnifyingglass" filter="url(#filter0_d_0_155)">
<path d="M10.7963 13.7208C11.493 13.7208 12.1476 13.5887 12.76 13.3247C13.3724 13.0606 13.9118 12.6954 14.3782 12.229C14.8445 11.7571 15.2097 11.2149 15.4738 10.6024C15.7435 9.98999 15.8783 9.33541 15.8783 8.6387C15.8783 7.94198 15.7435 7.28741 15.4738 6.67497C15.2097 6.06254 14.8445 5.52315 14.3782 5.0568C13.9118 4.59045 13.3724 4.22524 12.76 3.96116C12.1476 3.69146 11.493 3.55662 10.7963 3.55662C10.0996 3.55662 9.44498 3.69146 8.83254 3.96116C8.22011 4.22524 7.67791 4.59045 7.20594 5.0568C6.73959 5.52315 6.37438 6.06254 6.1103 6.67497C5.84622 7.28741 5.71418 7.94198 5.71418 8.6387C5.71418 9.33541 5.84622 9.98999 6.1103 10.6024C6.37438 11.2149 6.73959 11.7571 7.20594 12.229C7.67791 12.6954 8.22011 13.0606 8.83254 13.3247C9.44498 13.5887 10.0996 13.7208 10.7963 13.7208ZM10.7963 15.1198C9.9029 15.1198 9.06572 14.9513 8.28472 14.6141C7.50373 14.277 6.81544 13.8107 6.21986 13.2151C5.62428 12.6195 5.15793 11.9312 4.82081 11.1502C4.48369 10.3692 4.31514 9.53207 4.31514 8.6387C4.31514 7.74533 4.48369 6.90815 4.82081 6.12715C5.15793 5.34054 5.62428 4.65225 6.21986 4.0623C6.81544 3.46672 7.50373 3.00037 8.28472 2.66325C9.07134 2.32613 9.90852 2.15757 10.7963 2.15757C11.6896 2.15757 12.5268 2.32613 13.3078 2.66325C14.0888 3.00037 14.7771 3.46672 15.3727 4.0623C15.9682 4.65787 16.4346 5.34616 16.7717 6.12715C17.1088 6.90815 17.2774 7.74533 17.2774 8.6387C17.2774 9.53207 17.1088 10.3692 16.7717 11.1502C16.4346 11.9312 15.9682 12.6195 15.3727 13.2151C14.7771 13.8107 14.0888 14.277 13.3078 14.6141C12.5268 14.9513 11.6896 15.1198 10.7963 15.1198ZM19.2495 18.1792C19.1203 18.1792 18.9967 18.1567 18.8787 18.1118C18.7607 18.0668 18.654 17.9966 18.5585 17.9011L14.0832 13.4258L15.4654 12.0857L19.9154 16.5442C20.0109 16.6341 20.0783 16.738 20.1176 16.856C20.1626 16.974 20.1851 17.0948 20.1851 17.2184C20.1851 17.3982 20.1429 17.5583 20.0586 17.6988C19.98 17.8449 19.8704 17.9601 19.7299 18.0443C19.5895 18.1342 19.4293 18.1792 19.2495 18.1792Z" fill="var(--fill-0, white)" fill-opacity="0.9"/>
</g>
<defs>
<filter id="filter0_d_0_155" x="0" y="0" width="24.5002" height="24.6519" filterUnits="userSpaceOnUse" color-interpolation-filters="sRGB">
<feFlood flood-opacity="0" result="BackgroundImageFix"/>
<feColorMatrix in="SourceAlpha" type="matrix" values="0 0 0 0 0 0 0 0 0 0 0 0 0 0 0 0 0 0 127 0" result="hardAlpha"/>
<feOffset dy="2.15757"/>
<feGaussianBlur stdDeviation="2.15757"/>
<feColorMatrix type="matrix" values="0 0 0 0 0 0 0 0 0 0 0 0 0 0 0 0 0 0 0.15 0"/>
<feBlend mode="normal" in2="BackgroundImageFix" result="effect1_dropShadow_0_155"/>
<feBlend mode="normal" in="SourceGraphic" in2="effect1_dropShadow_0_155" result="shape"/>
</filter>
</defs>
</svg>
