<svg preserveAspectRatio="none" width="100%" height="100%" overflow="visible" style="display: block;" viewBox="0 0 27.2822 22.1066" fill="none" xmlns="http://www.w3.org/2000/svg">
<g id="wifi" filter="url(#filter0_d_0_175)">
<path d="M13.6449 15.6339C13.7348 15.6339 13.8247 15.6058 13.9146 15.5497C14.0101 15.4935 14.1366 15.3895 14.2939 15.2378L16.266 13.3415C16.3335 13.2797 16.37 13.2095 16.3756 13.1308C16.3868 13.0465 16.3644 12.9679 16.3082 12.8948C16.0441 12.5521 15.6761 12.2543 15.2041 12.0015C14.7378 11.7486 14.218 11.6222 13.6449 11.6222C13.0606 11.6222 12.5296 11.7542 12.052 12.0183C11.5801 12.2824 11.212 12.5914 10.948 12.9454C10.9086 13.0072 10.8946 13.0746 10.9058 13.1477C10.9227 13.2151 10.9648 13.2797 11.0322 13.3415L13.0044 15.2378C13.1561 15.3895 13.2797 15.4935 13.3752 15.5497C13.4708 15.6058 13.5606 15.6339 13.6449 15.6339ZM8.90839 11.2092C8.99267 11.2935 9.08538 11.3328 9.18652 11.3272C9.28765 11.3216 9.38036 11.2739 9.46464 11.184C9.94785 10.6389 10.5631 10.1923 11.3104 9.8439C12.0577 9.49554 12.8358 9.32418 13.6449 9.32979C14.4653 9.32418 15.2491 9.50116 15.9963 9.86076C16.7436 10.2147 17.3645 10.6642 17.8589 11.2092C17.9376 11.2935 18.0247 11.3357 18.1202 11.3357C18.2157 11.33 18.3028 11.2851 18.3815 11.2008L19.6372 9.96189C19.7047 9.89447 19.7412 9.82143 19.7468 9.74277C19.7524 9.65849 19.7271 9.57982 19.6709 9.50678C19.2608 9.00672 18.7467 8.56004 18.1286 8.16673C17.5106 7.7678 16.8195 7.45597 16.0553 7.23122C15.2912 7.00086 14.4877 6.88567 13.6449 6.88567C12.8021 6.88567 11.9987 7.00086 11.2345 7.23122C10.476 7.45597 9.78772 7.7678 9.16966 8.16673C8.55161 8.56004 8.0375 9.00672 7.62734 9.50678C7.56553 9.57982 7.53744 9.65568 7.54306 9.73434C7.54868 9.813 7.5852 9.88885 7.65262 9.96189L8.90839 11.2092ZM5.53719 7.82961C5.61586 7.91389 5.70575 7.95603 5.80689 7.95603C5.91365 7.95041 6.00354 7.90546 6.07659 7.82118C7.07671 6.76487 8.22011 5.96421 9.50678 5.4192C10.7935 4.86857 12.1728 4.59326 13.6449 4.59326C15.1226 4.59326 16.5048 4.86857 17.7915 5.4192C19.0838 5.96983 20.2272 6.7733 21.2217 7.82961C21.2947 7.90265 21.3818 7.93917 21.483 7.93917C21.5841 7.93917 21.6712 7.89703 21.7442 7.81275L22.8567 6.69183C22.9298 6.62441 22.9663 6.54855 22.9663 6.46427C22.9719 6.37438 22.9466 6.29571 22.8904 6.22829C22.2555 5.4473 21.4549 4.75058 20.4885 4.13815C19.5221 3.52009 18.4517 3.03689 17.2774 2.68853C16.1087 2.33456 14.8979 2.15757 13.6449 2.15757C12.392 2.15757 11.1783 2.33456 10.004 2.68853C8.82973 3.03689 7.75938 3.52009 6.79297 4.13815C5.83217 4.75058 5.03432 5.4473 4.39941 6.22829C4.34323 6.29571 4.31514 6.37438 4.31514 6.46427C4.32075 6.54855 4.35727 6.62441 4.4247 6.69183L5.53719 7.82961Z" fill="var(--fill-0, white)" fill-opacity="0.9"/>
</g>
<defs>
<filter id="filter0_d_0_175" x="0" y="0" width="27.2822" height="22.1066" filterUnits="userSpaceOnUse" color-interpolation-filters="sRGB">
<feFlood flood-opacity="0" result="BackgroundImageFix"/>
<feColorMatrix in="SourceAlpha" type="matrix" values="0 0 0 0 0 0 0 0 0 0 0 0 0 0 0 0 0 0 127 0" result="hardAlpha"/>
<feOffset dy="2.15757"/>
<feGaussianBlur stdDeviation="2.15757"/>
<feColorMatrix type="matrix" values="0 0 0 0 0 0 0 0 0 0 0 0 0 0 0 0 0 0 0.15 0"/>
<feBlend mode="normal" in2="BackgroundImageFix" result="effect1_dropShadow_0_175"/>
<feBlend mode="normal" in="SourceGraphic" in2="effect1_dropShadow_0_175" result="shape"/>
</filter>
</defs>
</svg>
